<mxfile host="65bd71144e">
    <diagram id="Z4UUwyzKqeyKL6PjGZsP" name="Page-1">
        <mxGraphModel dx="847" dy="1553" grid="1" gridSize="10" guides="1" tooltips="1" connect="1" arrows="1" fold="1" page="1" pageScale="1" pageWidth="850" pageHeight="1100" math="0" shadow="0">
            <root>
                <mxCell id="0"/>
                <mxCell id="1" parent="0"/>
                <mxCell id="2" value="" style="rounded=0;whiteSpace=wrap;html=1;fontSize=17;" parent="1" vertex="1">
                    <mxGeometry x="50" y="-470" width="330" height="350" as="geometry"/>
                </mxCell>
                <mxCell id="3" value="" style="rounded=0;whiteSpace=wrap;html=1;fontSize=17;" parent="1" vertex="1">
                    <mxGeometry x="69" y="-450" width="290" height="90" as="geometry"/>
                </mxCell>
                <mxCell id="4" value="" style="rounded=0;whiteSpace=wrap;html=1;fontSize=17;dashed=1;dashPattern=1 1;" parent="1" vertex="1">
                    <mxGeometry x="79" y="-440" width="80" height="70" as="geometry"/>
                </mxCell>
                <mxCell id="5" value="&lt;h1 style=&quot;font-size: 13px&quot;&gt;Receita 1&lt;/h1&gt;&lt;div&gt;&lt;br&gt;&lt;/div&gt;&lt;div&gt;&lt;span style=&quot;font-size: 13px&quot;&gt;Lorem ipsum dolor sit amet&lt;/span&gt;&lt;br&gt;&lt;/div&gt;" style="text;html=1;strokeColor=none;fillColor=none;spacing=6;spacingTop=-28;whiteSpace=wrap;overflow=hidden;rounded=0;fontSize=14;verticalAlign=top;horizontal=1;" parent="1" vertex="1">
                    <mxGeometry x="167" y="-430" width="190" height="80" as="geometry"/>
                </mxCell>
                <mxCell id="6" value="Porções | Tempo de preparo" style="text;html=1;strokeColor=none;fillColor=none;align=left;verticalAlign=middle;whiteSpace=wrap;rounded=0;fontSize=10;" parent="1" vertex="1">
                    <mxGeometry x="171" y="-421" width="170" height="20" as="geometry"/>
                </mxCell>
                <mxCell id="7" value="" style="rounded=0;whiteSpace=wrap;html=1;fontSize=17;" parent="1" vertex="1">
                    <mxGeometry x="70" y="-340" width="290" height="90" as="geometry"/>
                </mxCell>
                <mxCell id="8" value="" style="rounded=0;whiteSpace=wrap;html=1;fontSize=17;dashed=1;dashPattern=1 1;" parent="1" vertex="1">
                    <mxGeometry x="80" y="-330" width="80" height="70" as="geometry"/>
                </mxCell>
                <mxCell id="9" value="&lt;h1 style=&quot;font-size: 13px&quot;&gt;Receita 2&lt;/h1&gt;&lt;div&gt;&lt;br&gt;&lt;/div&gt;&lt;div&gt;&lt;span style=&quot;font-size: 13px&quot;&gt;Lorem ipsum dolor sit amet&lt;/span&gt;&lt;br&gt;&lt;/div&gt;" style="text;html=1;strokeColor=none;fillColor=none;spacing=6;spacingTop=-28;whiteSpace=wrap;overflow=hidden;rounded=0;fontSize=14;verticalAlign=top;horizontal=1;" parent="1" vertex="1">
                    <mxGeometry x="168" y="-320" width="190" height="80" as="geometry"/>
                </mxCell>
                <mxCell id="10" value="Porções | Tempo de preparo" style="text;html=1;strokeColor=none;fillColor=none;align=left;verticalAlign=middle;whiteSpace=wrap;rounded=0;fontSize=10;" parent="1" vertex="1">
                    <mxGeometry x="172" y="-311" width="170" height="20" as="geometry"/>
                </mxCell>
                <mxCell id="11" value="" style="rounded=0;whiteSpace=wrap;html=1;fontSize=17;" parent="1" vertex="1">
                    <mxGeometry x="70" y="-230" width="290" height="90" as="geometry"/>
                </mxCell>
                <mxCell id="12" value="" style="rounded=0;whiteSpace=wrap;html=1;fontSize=17;dashed=1;dashPattern=1 1;" parent="1" vertex="1">
                    <mxGeometry x="80" y="-220" width="80" height="70" as="geometry"/>
                </mxCell>
                <mxCell id="13" value="&lt;h1 style=&quot;font-size: 13px&quot;&gt;Receita 3&lt;/h1&gt;&lt;div&gt;&lt;br&gt;&lt;/div&gt;&lt;div&gt;&lt;span style=&quot;font-size: 13px&quot;&gt;Lorem ipsum dolor sit amet&lt;/span&gt;&lt;br&gt;&lt;/div&gt;" style="text;html=1;strokeColor=none;fillColor=none;spacing=6;spacingTop=-28;whiteSpace=wrap;overflow=hidden;rounded=0;fontSize=14;verticalAlign=top;horizontal=1;" parent="1" vertex="1">
                    <mxGeometry x="168" y="-210" width="190" height="80" as="geometry"/>
                </mxCell>
                <mxCell id="14" value="Porções | Tempo de preparo" style="text;html=1;strokeColor=none;fillColor=none;align=left;verticalAlign=middle;whiteSpace=wrap;rounded=0;fontSize=10;" parent="1" vertex="1">
                    <mxGeometry x="172" y="-201" width="170" height="20" as="geometry"/>
                </mxCell>
                <mxCell id="15" value="" style="rounded=0;whiteSpace=wrap;html=1;fontSize=17;" parent="1" vertex="1">
                    <mxGeometry x="490" y="-470" width="330" height="470" as="geometry"/>
                </mxCell>
                <mxCell id="16" value="Receita 1" style="text;html=1;strokeColor=none;fillColor=none;align=left;verticalAlign=middle;whiteSpace=wrap;rounded=0;dashed=1;dashPattern=1 1;fontSize=21;fontStyle=1" parent="1" vertex="1">
                    <mxGeometry x="510" y="-450" width="140" height="30" as="geometry"/>
                </mxCell>
                <mxCell id="17" value="" style="rounded=0;whiteSpace=wrap;html=1;dashed=1;dashPattern=1 1;fontSize=21;" parent="1" vertex="1">
                    <mxGeometry x="510" y="-410" width="290" height="80" as="geometry"/>
                </mxCell>
                <mxCell id="18" value="Ingredientes" style="text;html=1;strokeColor=none;fillColor=none;align=left;verticalAlign=middle;whiteSpace=wrap;rounded=0;dashed=1;dashPattern=1 1;fontSize=16;fontStyle=1" parent="1" vertex="1">
                    <mxGeometry x="510" y="-280" width="150" height="30" as="geometry"/>
                </mxCell>
                <mxCell id="19" value="&lt;ul&gt;&lt;li&gt;&lt;span&gt;Tomate&lt;/span&gt;&lt;/li&gt;&lt;li&gt;&lt;span&gt;Requeijão&lt;/span&gt;&lt;br&gt;&lt;/li&gt;&lt;li&gt;Farinha de trigo&lt;/li&gt;&lt;/ul&gt;" style="text;strokeColor=none;fillColor=none;html=1;whiteSpace=wrap;verticalAlign=middle;overflow=hidden;dashed=1;dashPattern=1 1;fontSize=16;align=left;" parent="1" vertex="1">
                    <mxGeometry x="510" y="-265" width="200" height="96" as="geometry"/>
                </mxCell>
                <mxCell id="20" value="Modo de preparo" style="text;html=1;strokeColor=none;fillColor=none;align=left;verticalAlign=middle;whiteSpace=wrap;rounded=0;dashed=1;dashPattern=1 1;fontSize=16;fontStyle=1" parent="1" vertex="1">
                    <mxGeometry x="510" y="-149" width="150" height="30" as="geometry"/>
                </mxCell>
                <mxCell id="21" value="1) Faça isso e coloque aquilo" style="text;html=1;strokeColor=none;fillColor=none;align=left;verticalAlign=middle;whiteSpace=wrap;rounded=0;dashed=1;dashPattern=1 1;fontSize=16;" parent="1" vertex="1">
                    <mxGeometry x="510" y="-114" width="290" height="40" as="geometry"/>
                </mxCell>
                <mxCell id="22" value="2) Faça isso e coloque aquilo" style="text;html=1;strokeColor=none;fillColor=none;align=left;verticalAlign=middle;whiteSpace=wrap;rounded=0;dashed=1;dashPattern=1 1;fontSize=16;" parent="1" vertex="1">
                    <mxGeometry x="510" y="-84" width="290" height="40" as="geometry"/>
                </mxCell>
                <mxCell id="23" value="3) Faça isso e coloque aquilo" style="text;html=1;strokeColor=none;fillColor=none;align=left;verticalAlign=middle;whiteSpace=wrap;rounded=0;dashed=1;dashPattern=1 1;fontSize=16;" parent="1" vertex="1">
                    <mxGeometry x="510" y="-54" width="290" height="40" as="geometry"/>
                </mxCell>
                <mxCell id="24" value="Porções: 4 | Tempo: 30min | Autor: Ayrton" style="text;html=1;strokeColor=none;fillColor=none;align=left;verticalAlign=middle;whiteSpace=wrap;rounded=0;dashed=1;dashPattern=1 1;fontSize=14;" parent="1" vertex="1">
                    <mxGeometry x="510" y="-321" width="290" height="30" as="geometry"/>
                </mxCell>
                <mxCell id="25" value="" style="ellipse;whiteSpace=wrap;html=1;aspect=fixed;fillColor=#f5f5f5;strokeColor=#666666;fontColor=#333333;" parent="1" vertex="1">
                    <mxGeometry x="775" y="-318" width="23" height="23" as="geometry"/>
                </mxCell>
                <mxCell id="26" value="" style="rounded=0;whiteSpace=wrap;html=1;fontSize=21;" vertex="1" parent="1">
                    <mxGeometry x="1310" y="-541" width="600" height="360" as="geometry"/>
                </mxCell>
                <mxCell id="39" style="edgeStyle=none;html=1;entryX=0;entryY=0.5;entryDx=0;entryDy=0;fontSize=19;endArrow=none;endFill=0;" edge="1" parent="1" source="27" target="28">
                    <mxGeometry relative="1" as="geometry"/>
                </mxCell>
                <mxCell id="27" value="&lt;font style=&quot;font-size: 21px&quot;&gt;Recipe&lt;/font&gt;" style="rounded=0;whiteSpace=wrap;html=1;" vertex="1" parent="1">
                    <mxGeometry x="1360" y="-420" width="120" height="80" as="geometry"/>
                </mxCell>
                <mxCell id="28" value="&lt;font style=&quot;font-size: 21px&quot;&gt;Ingredient&lt;/font&gt;" style="rounded=0;whiteSpace=wrap;html=1;" vertex="1" parent="1">
                    <mxGeometry x="1600" y="-475" width="120" height="80" as="geometry"/>
                </mxCell>
                <mxCell id="29" value="Entidades" style="text;html=1;strokeColor=none;fillColor=none;align=left;verticalAlign=middle;whiteSpace=wrap;rounded=0;fontSize=21;" vertex="1" parent="1">
                    <mxGeometry x="1360" y="-521" width="370" height="30" as="geometry"/>
                </mxCell>
                <mxCell id="30" value="&lt;font style=&quot;font-size: 21px&quot;&gt;User&lt;/font&gt;" style="rounded=0;whiteSpace=wrap;html=1;" vertex="1" parent="1">
                    <mxGeometry x="1770" y="-301" width="120" height="80" as="geometry"/>
                </mxCell>
                <mxCell id="32" style="edgeStyle=none;html=1;entryX=0;entryY=0.5;entryDx=0;entryDy=0;endArrow=none;endFill=0;" edge="1" parent="1" source="31" target="30">
                    <mxGeometry relative="1" as="geometry"/>
                </mxCell>
                <mxCell id="36" style="edgeStyle=none;html=1;entryX=0.5;entryY=1;entryDx=0;entryDy=0;fontSize=19;endArrow=none;endFill=0;" edge="1" parent="1" source="31" target="27">
                    <mxGeometry relative="1" as="geometry"/>
                </mxCell>
                <mxCell id="31" value="&lt;font style=&quot;font-size: 21px&quot;&gt;Author&lt;/font&gt;" style="rounded=0;whiteSpace=wrap;html=1;" vertex="1" parent="1">
                    <mxGeometry x="1500" y="-300" width="120" height="80" as="geometry"/>
                </mxCell>
                <mxCell id="33" value="1.1" style="text;html=1;strokeColor=none;fillColor=none;align=center;verticalAlign=middle;whiteSpace=wrap;rounded=0;fontSize=19;" vertex="1" parent="1">
                    <mxGeometry x="1720" y="-290" width="60" height="30" as="geometry"/>
                </mxCell>
                <mxCell id="34" value="0.1" style="text;html=1;strokeColor=none;fillColor=none;align=center;verticalAlign=middle;whiteSpace=wrap;rounded=0;fontSize=19;" vertex="1" parent="1">
                    <mxGeometry x="1620" y="-290" width="60" height="30" as="geometry"/>
                </mxCell>
                <mxCell id="37" value="1.1" style="text;html=1;strokeColor=none;fillColor=none;align=center;verticalAlign=middle;whiteSpace=wrap;rounded=0;fontSize=19;" vertex="1" parent="1">
                    <mxGeometry x="1450" y="-300" width="60" height="30" as="geometry"/>
                </mxCell>
                <mxCell id="38" value="0.N" style="text;html=1;strokeColor=none;fillColor=none;align=center;verticalAlign=middle;whiteSpace=wrap;rounded=0;fontSize=19;" vertex="1" parent="1">
                    <mxGeometry x="1380" y="-340" width="60" height="30" as="geometry"/>
                </mxCell>
                <mxCell id="40" value="1.N" style="text;html=1;strokeColor=none;fillColor=none;align=center;verticalAlign=middle;whiteSpace=wrap;rounded=0;fontSize=19;rotation=-25;" vertex="1" parent="1">
                    <mxGeometry x="1550" y="-470" width="60" height="30" as="geometry"/>
                </mxCell>
                <mxCell id="41" value="0.N" style="text;html=1;strokeColor=none;fillColor=none;align=center;verticalAlign=middle;whiteSpace=wrap;rounded=0;fontSize=19;rotation=-25;" vertex="1" parent="1">
                    <mxGeometry x="1470" y="-440" width="60" height="30" as="geometry"/>
                </mxCell>
            </root>
        </mxGraphModel>
    </diagram>
</mxfile>